<svg width="201" height="37" viewBox="0 0 201 37" fill="none" xmlns="http://www.w3.org/2000/svg">
<path d="M20 33.3542C25.2667 33.3542 30.5333 32.2708 32.9667 30.1208C35.4 27.9708 36.6667 23.6708 36.6667 18.3542C36.6667 13.0375 35.2833 8.63751 32.9667 6.57084C28.1167 2.25418 11.8833 2.25418 7.03333 6.57084C4.71667 8.63751 3.33333 13.0375 3.33333 18.3542C3.33333 23.6708 4.71667 28.0708 7.03333 30.1375C9.35 32.2042 14.7333 33.3542 20 33.3542ZM28.3333 16.6875C28.3333 16.2455 28.5089 15.8216 28.8215 15.509C29.134 15.1964 29.558 15.0208 30 15.0208C30.442 15.0208 30.866 15.1964 31.1785 15.509C31.4911 15.8216 31.6667 16.2455 31.6667 16.6875V20.0208C31.6667 20.4629 31.4911 20.8868 31.1785 21.1994C30.866 21.5119 30.442 21.6875 30 21.6875C29.558 21.6875 29.134 21.5119 28.8215 21.1994C28.5089 20.8868 28.3333 20.4629 28.3333 20.0208V16.6875ZM23.3333 14.1875C23.3333 13.7455 23.5089 13.3216 23.8215 13.009C24.134 12.6964 24.558 12.5208 25 12.5208C25.442 12.5208 25.8659 12.6964 26.1785 13.009C26.4911 13.3216 26.6667 13.7455 26.6667 14.1875V22.5208C26.6667 22.9629 26.4911 23.3868 26.1785 23.6994C25.8659 24.0119 25.442 24.1875 25 24.1875C24.558 24.1875 24.134 24.0119 23.8215 23.6994C23.5089 23.3868 23.3333 22.9629 23.3333 22.5208V14.1875ZM18.3333 10.8542C18.3333 10.4122 18.5089 9.98823 18.8215 9.67567C19.134 9.36311 19.558 9.18751 20 9.18751C20.442 9.18751 20.8659 9.36311 21.1785 9.67567C21.4911 9.98823 21.6667 10.4122 21.6667 10.8542V25.8542C21.6667 26.2962 21.4911 26.7201 21.1785 27.0327C20.8659 27.3453 20.442 27.5208 20 27.5208C19.558 27.5208 19.134 27.3453 18.8215 27.0327C18.5089 26.7201 18.3333 26.2962 18.3333 25.8542V10.8542ZM13.3333 14.1875C13.3333 13.7455 13.5089 13.3216 13.8215 13.009C14.134 12.6964 14.558 12.5208 15 12.5208C15.442 12.5208 15.8659 12.6964 16.1785 13.009C16.4911 13.3216 16.6667 13.7455 16.6667 14.1875V22.5208C16.6667 22.9629 16.4911 23.3868 16.1785 23.6994C15.8659 24.0119 15.442 24.1875 15 24.1875C14.558 24.1875 14.134 24.0119 13.8215 23.6994C13.5089 23.3868 13.3333 22.9629 13.3333 22.5208V14.1875ZM8.33333 16.6875C8.33333 16.2455 8.50893 15.8216 8.82149 15.509C9.13405 15.1964 9.55797 15.0208 10 15.0208C10.442 15.0208 10.8659 15.1964 11.1785 15.509C11.4911 15.8216 11.6667 16.2455 11.6667 16.6875V20.0208C11.6667 20.4629 11.4911 20.8868 11.1785 21.1994C10.8659 21.5119 10.442 21.6875 10 21.6875C9.55797 21.6875 9.13405 21.5119 8.82149 21.1994C8.50893 20.8868 8.33333 20.4629 8.33333 20.0208V16.6875Z" fill="black"/>
<path d="M51.6992 27V9.82031H56.8906L60.0078 21.5391L63.0898 9.82031H68.293V27H65.0703V13.4766L61.6602 27H58.3203L54.9219 13.4766V27H51.6992ZM79.9062 27V25.1367C79.4531 25.8008 78.8555 26.3242 78.1133 26.707C77.3789 27.0898 76.6016 27.2812 75.7812 27.2812C74.9453 27.2812 74.1953 27.0977 73.5312 26.7305C72.8672 26.3633 72.3867 25.8477 72.0898 25.1836C71.793 24.5195 71.6445 23.6016 71.6445 22.4297V14.5547H74.9375V20.2734C74.9375 22.0234 74.9961 23.0977 75.1133 23.4961C75.2383 23.8867 75.4609 24.1992 75.7812 24.4336C76.1016 24.6602 76.5078 24.7734 77 24.7734C77.5625 24.7734 78.0664 24.6211 78.5117 24.3164C78.957 24.0039 79.2617 23.6211 79.4258 23.168C79.5898 22.707 79.6719 21.5859 79.6719 19.8047V14.5547H82.9648V27H79.9062ZM85.2266 23.4492L88.5312 22.9453C88.6719 23.5859 88.957 24.0742 89.3867 24.4102C89.8164 24.7383 90.418 24.9023 91.1914 24.9023C92.043 24.9023 92.6836 24.7461 93.1133 24.4336C93.4023 24.2148 93.5469 23.9219 93.5469 23.5547C93.5469 23.3047 93.4688 23.0977 93.3125 22.9336C93.1484 22.7773 92.7812 22.6328 92.2109 22.5C89.5547 21.9141 87.8711 21.3789 87.1602 20.8945C86.1758 20.2227 85.6836 19.2891 85.6836 18.0938C85.6836 17.0156 86.1094 16.1094 86.9609 15.375C87.8125 14.6406 89.1328 14.2734 90.9219 14.2734C92.625 14.2734 93.8906 14.5508 94.7188 15.1055C95.5469 15.6602 96.1172 16.4805 96.4297 17.5664L93.3242 18.1406C93.1914 17.6562 92.9375 17.2852 92.5625 17.0273C92.1953 16.7695 91.668 16.6406 90.9805 16.6406C90.1133 16.6406 89.4922 16.7617 89.1172 17.0039C88.8672 17.1758 88.7422 17.3984 88.7422 17.6719C88.7422 17.9062 88.8516 18.1055 89.0703 18.2695C89.3672 18.4883 90.3906 18.7969 92.1406 19.1953C93.8984 19.5938 95.125 20.082 95.8203 20.6602C96.5078 21.2461 96.8516 22.0625 96.8516 23.1094C96.8516 24.25 96.375 25.2305 95.4219 26.0508C94.4688 26.8711 93.0586 27.2812 91.1914 27.2812C89.4961 27.2812 88.1523 26.9375 87.1602 26.25C86.1758 25.5625 85.5312 24.6289 85.2266 23.4492ZM99.7461 12.8672V9.82031H103.039V12.8672H99.7461ZM99.7461 27V14.5547H103.039V27H99.7461ZM117.277 18.2344L114.031 18.8203C113.922 18.1719 113.672 17.6836 113.281 17.3555C112.898 17.0273 112.398 16.8633 111.781 16.8633C110.961 16.8633 110.305 17.1484 109.812 17.7188C109.328 18.2812 109.086 19.2266 109.086 20.5547C109.086 22.0312 109.332 23.0742 109.824 23.6836C110.324 24.293 110.992 24.5977 111.828 24.5977C112.453 24.5977 112.965 24.4219 113.363 24.0703C113.762 23.7109 114.043 23.0977 114.207 22.2305L117.441 22.7812C117.105 24.2656 116.461 25.3867 115.508 26.1445C114.555 26.9023 113.277 27.2812 111.676 27.2812C109.855 27.2812 108.402 26.707 107.316 25.5586C106.238 24.4102 105.699 22.8203 105.699 20.7891C105.699 18.7344 106.242 17.1367 107.328 15.9961C108.414 14.8477 109.883 14.2734 111.734 14.2734C113.25 14.2734 114.453 14.6016 115.344 15.2578C116.242 15.9062 116.887 16.8984 117.277 18.2344ZM126.488 27V9.82031H132.055C134.164 9.82031 135.539 9.90625 136.18 10.0781C137.164 10.3359 137.988 10.8984 138.652 11.7656C139.316 12.625 139.648 13.7383 139.648 15.1055C139.648 16.1602 139.457 17.0469 139.074 17.7656C138.691 18.4844 138.203 19.0508 137.609 19.4648C137.023 19.8711 136.426 20.1406 135.816 20.2734C134.988 20.4375 133.789 20.5195 132.219 20.5195H129.957V27H126.488ZM129.957 12.7266V17.6016H131.855C133.223 17.6016 134.137 17.5117 134.598 17.332C135.059 17.1523 135.418 16.8711 135.676 16.4883C135.941 16.1055 136.074 15.6602 136.074 15.1523C136.074 14.5273 135.891 14.0117 135.523 13.6055C135.156 13.1992 134.691 12.9453 134.129 12.8438C133.715 12.7656 132.883 12.7266 131.633 12.7266H129.957ZM142.473 27V9.82031H145.766V27H142.473ZM151.613 18.3516L148.625 17.8125C148.961 16.6094 149.539 15.7188 150.359 15.1406C151.18 14.5625 152.398 14.2734 154.016 14.2734C155.484 14.2734 156.578 14.4492 157.297 14.8008C158.016 15.1445 158.52 15.5859 158.809 16.125C159.105 16.6562 159.254 17.6367 159.254 19.0664L159.219 22.9102C159.219 24.0039 159.27 24.8125 159.371 25.3359C159.48 25.8516 159.68 26.4062 159.969 27H156.711C156.625 26.7812 156.52 26.457 156.395 26.0273C156.34 25.832 156.301 25.7031 156.277 25.6406C155.715 26.1875 155.113 26.5977 154.473 26.8711C153.832 27.1445 153.148 27.2812 152.422 27.2812C151.141 27.2812 150.129 26.9336 149.387 26.2383C148.652 25.543 148.285 24.6641 148.285 23.6016C148.285 22.8984 148.453 22.2734 148.789 21.7266C149.125 21.1719 149.594 20.75 150.195 20.4609C150.805 20.1641 151.68 19.9062 152.82 19.6875C154.359 19.3984 155.426 19.1289 156.02 18.8789V18.5508C156.02 17.918 155.863 17.4688 155.551 17.2031C155.238 16.9297 154.648 16.793 153.781 16.793C153.195 16.793 152.738 16.9102 152.41 17.1445C152.082 17.3711 151.816 17.7734 151.613 18.3516ZM156.02 21.0234C155.598 21.1641 154.93 21.332 154.016 21.5273C153.102 21.7227 152.504 21.9141 152.223 22.1016C151.793 22.4062 151.578 22.793 151.578 23.2617C151.578 23.7227 151.75 24.1211 152.094 24.457C152.438 24.793 152.875 24.9609 153.406 24.9609C154 24.9609 154.566 24.7656 155.105 24.375C155.504 24.0781 155.766 23.7148 155.891 23.2852C155.977 23.0039 156.02 22.4688 156.02 21.6797V21.0234ZM160.953 14.5547H164.457L167.434 23.3906L170.34 14.5547H173.75L169.355 26.5312L168.57 28.6992C168.281 29.4258 168.004 29.9805 167.738 30.3633C167.48 30.7461 167.18 31.0547 166.836 31.2891C166.5 31.5312 166.082 31.7188 165.582 31.8516C165.09 31.9844 164.531 32.0508 163.906 32.0508C163.273 32.0508 162.652 31.9844 162.043 31.8516L161.75 29.2734C162.266 29.375 162.73 29.4258 163.145 29.4258C163.91 29.4258 164.477 29.1992 164.844 28.7461C165.211 28.3008 165.492 27.7305 165.688 27.0352L160.953 14.5547ZM183.078 23.0391L186.359 23.5898C185.938 24.793 185.27 25.7109 184.355 26.3438C183.449 26.9688 182.312 27.2812 180.945 27.2812C178.781 27.2812 177.18 26.5742 176.141 25.1602C175.32 24.0273 174.91 22.5977 174.91 20.8711C174.91 18.8086 175.449 17.1953 176.527 16.0312C177.605 14.8594 178.969 14.2734 180.617 14.2734C182.469 14.2734 183.93 14.8867 185 16.1133C186.07 17.332 186.582 19.2031 186.535 21.7266H178.285C178.309 22.7031 178.574 23.4648 179.082 24.0117C179.59 24.5508 180.223 24.8203 180.98 24.8203C181.496 24.8203 181.93 24.6797 182.281 24.3984C182.633 24.1172 182.898 23.6641 183.078 23.0391ZM183.266 19.7109C183.242 18.7578 182.996 18.0352 182.527 17.543C182.059 17.043 181.488 16.793 180.816 16.793C180.098 16.793 179.504 17.0547 179.035 17.5781C178.566 18.1016 178.336 18.8125 178.344 19.7109H183.266ZM192.383 27H189.09V14.5547H192.148V16.3242C192.672 15.4883 193.141 14.9375 193.555 14.6719C193.977 14.4062 194.453 14.2734 194.984 14.2734C195.734 14.2734 196.457 14.4805 197.152 14.8945L196.133 17.7656C195.578 17.4062 195.062 17.2266 194.586 17.2266C194.125 17.2266 193.734 17.3555 193.414 17.6133C193.094 17.8633 192.84 18.3203 192.652 18.9844C192.473 19.6484 192.383 21.0391 192.383 23.1562V27Z" fill="black"/>
</svg>
