<svg width="213" height="37" viewBox="0 0 213 37" fill="none" xmlns="http://www.w3.org/2000/svg">
<path d="M20 33.3542C25.2667 33.3542 30.5333 32.2708 32.9667 30.1208C35.4 27.9708 36.6667 23.6708 36.6667 18.3542C36.6667 13.0375 35.2833 8.63751 32.9667 6.57084C28.1167 2.25418 11.8833 2.25418 7.03333 6.57084C4.71667 8.63751 3.33333 13.0375 3.33333 18.3542C3.33333 23.6708 4.71667 28.0708 7.03333 30.1375C9.35 32.2042 14.7333 33.3542 20 33.3542ZM28.3333 16.6875C28.3333 16.2455 28.5089 15.8216 28.8215 15.509C29.134 15.1964 29.558 15.0208 30 15.0208C30.442 15.0208 30.866 15.1964 31.1785 15.509C31.4911 15.8216 31.6667 16.2455 31.6667 16.6875V20.0208C31.6667 20.4629 31.4911 20.8868 31.1785 21.1994C30.866 21.5119 30.442 21.6875 30 21.6875C29.558 21.6875 29.134 21.5119 28.8215 21.1994C28.5089 20.8868 28.3333 20.4629 28.3333 20.0208V16.6875ZM23.3333 14.1875C23.3333 13.7455 23.5089 13.3216 23.8215 13.009C24.134 12.6964 24.558 12.5208 25 12.5208C25.442 12.5208 25.8659 12.6964 26.1785 13.009C26.4911 13.3216 26.6667 13.7455 26.6667 14.1875V22.5208C26.6667 22.9629 26.4911 23.3868 26.1785 23.6994C25.8659 24.0119 25.442 24.1875 25 24.1875C24.558 24.1875 24.134 24.0119 23.8215 23.6994C23.5089 23.3868 23.3333 22.9629 23.3333 22.5208V14.1875ZM18.3333 10.8542C18.3333 10.4122 18.5089 9.98823 18.8215 9.67567C19.134 9.36311 19.558 9.18751 20 9.18751C20.442 9.18751 20.8659 9.36311 21.1785 9.67567C21.4911 9.98823 21.6667 10.4122 21.6667 10.8542V25.8542C21.6667 26.2962 21.4911 26.7201 21.1785 27.0327C20.8659 27.3453 20.442 27.5208 20 27.5208C19.558 27.5208 19.134 27.3453 18.8215 27.0327C18.5089 26.7201 18.3333 26.2962 18.3333 25.8542V10.8542ZM13.3333 14.1875C13.3333 13.7455 13.5089 13.3216 13.8215 13.009C14.134 12.6964 14.558 12.5208 15 12.5208C15.442 12.5208 15.8659 12.6964 16.1785 13.009C16.4911 13.3216 16.6667 13.7455 16.6667 14.1875V22.5208C16.6667 22.9629 16.4911 23.3868 16.1785 23.6994C15.8659 24.0119 15.442 24.1875 15 24.1875C14.558 24.1875 14.134 24.0119 13.8215 23.6994C13.5089 23.3868 13.3333 22.9629 13.3333 22.5208V14.1875ZM8.33333 16.6875C8.33333 16.2455 8.50893 15.8216 8.82149 15.509C9.13405 15.1964 9.55797 15.0208 10 15.0208C10.442 15.0208 10.8659 15.1964 11.1785 15.509C11.4911 15.8216 11.6667 16.2455 11.6667 16.6875V20.0208C11.6667 20.4629 11.4911 20.8868 11.1785 21.1994C10.8659 21.5119 10.442 21.6875 10 21.6875C9.55797 21.6875 9.13405 21.5119 8.82149 21.1994C8.50893 20.8868 8.33333 20.4629 8.33333 20.0208V16.6875Z" fill="white"/>
<path d="M51.968 28V10.48H57.392L61.4 20.32H61.856L65.816 10.48H71.336V28H67.448V13.048L68 13.096L63.368 24.448H59.624L54.968 13.096L55.568 13.048V28H51.968ZM79.4889 28.408C77.9689 28.408 76.8009 27.92 75.9849 26.944C75.1689 25.952 74.7609 24.464 74.7609 22.48V14.848H78.6009V22.672C78.6009 23.376 78.8009 23.936 79.2009 24.352C79.6009 24.768 80.1369 24.976 80.8089 24.976C81.4969 24.976 82.0569 24.76 82.4889 24.328C82.9209 23.896 83.1369 23.312 83.1369 22.576V14.848H86.9769V28H83.9289V22.456H84.1929C84.1929 23.784 84.0169 24.896 83.6649 25.792C83.3289 26.672 82.8249 27.328 82.1529 27.76C81.4809 28.192 80.6489 28.408 79.6569 28.408H79.4889ZM95.5096 28.408C93.6376 28.408 92.1736 28.024 91.1176 27.256C90.0616 26.488 89.5016 25.408 89.4376 24.016H92.8456C92.9096 24.432 93.1576 24.808 93.5896 25.144C94.0376 25.464 94.7016 25.624 95.5816 25.624C96.2536 25.624 96.8056 25.512 97.2376 25.288C97.6856 25.048 97.9096 24.712 97.9096 24.28C97.9096 23.896 97.7416 23.592 97.4056 23.368C97.0696 23.128 96.4696 22.96 95.6056 22.864L94.5736 22.768C92.9896 22.608 91.7976 22.168 90.9976 21.448C90.2136 20.728 89.8216 19.808 89.8216 18.688C89.8216 17.76 90.0536 16.984 90.5176 16.36C90.9816 15.736 91.6216 15.264 92.4376 14.944C93.2696 14.624 94.2136 14.464 95.2696 14.464C96.9656 14.464 98.3336 14.84 99.3736 15.592C100.414 16.328 100.958 17.4 101.006 18.808H97.5976C97.5336 18.376 97.3096 18.016 96.9256 17.728C96.5416 17.424 95.9736 17.272 95.2216 17.272C94.6296 17.272 94.1576 17.384 93.8056 17.608C93.4536 17.832 93.2776 18.136 93.2776 18.52C93.2776 18.888 93.4296 19.168 93.7336 19.36C94.0376 19.552 94.5336 19.688 95.2216 19.768L96.2536 19.864C97.8696 20.04 99.1256 20.488 100.022 21.208C100.918 21.928 101.366 22.896 101.366 24.112C101.366 24.992 101.126 25.76 100.646 26.416C100.166 27.056 99.4856 27.552 98.6056 27.904C97.7256 28.24 96.6936 28.408 95.5096 28.408ZM104.478 28V14.848H108.318V28H104.478ZM102.726 17.68V14.848H108.318V17.68H102.726ZM105.966 13.552C105.246 13.552 104.71 13.368 104.358 13C104.022 12.616 103.854 12.136 103.854 11.56C103.854 10.968 104.022 10.488 104.358 10.12C104.71 9.736 105.246 9.544 105.966 9.544C106.686 9.544 107.214 9.736 107.55 10.12C107.902 10.488 108.078 10.968 108.078 11.56C108.078 12.136 107.902 12.616 107.55 13C107.214 13.368 106.686 13.552 105.966 13.552ZM117.773 28.456C116.637 28.456 115.645 28.272 114.797 27.904C113.965 27.52 113.269 27.008 112.709 26.368C112.149 25.728 111.733 25.008 111.461 24.208C111.189 23.392 111.053 22.552 111.053 21.688V21.232C111.053 20.336 111.197 19.48 111.485 18.664C111.773 17.832 112.197 17.096 112.757 16.456C113.317 15.816 114.013 15.312 114.845 14.944C115.693 14.576 116.661 14.392 117.749 14.392C118.933 14.392 119.981 14.624 120.893 15.088C121.805 15.536 122.533 16.168 123.077 16.984C123.621 17.8 123.925 18.736 123.989 19.792H120.221C120.157 19.2 119.917 18.704 119.501 18.304C119.101 17.888 118.517 17.68 117.749 17.68C117.109 17.68 116.573 17.84 116.141 18.16C115.725 18.48 115.413 18.92 115.205 19.48C114.997 20.04 114.893 20.704 114.893 21.472C114.893 22.176 114.989 22.816 115.181 23.392C115.373 23.952 115.677 24.392 116.093 24.712C116.525 25.016 117.085 25.168 117.773 25.168C118.285 25.168 118.717 25.08 119.069 24.904C119.437 24.712 119.725 24.456 119.933 24.136C120.157 23.8 120.293 23.416 120.341 22.984H124.085C124.037 24.072 123.733 25.032 123.173 25.864C122.613 26.68 121.869 27.32 120.941 27.784C120.013 28.232 118.957 28.456 117.773 28.456ZM135.252 22.984V19.576H138.396C139.004 19.576 139.524 19.456 139.956 19.216C140.404 18.976 140.748 18.64 140.988 18.208C141.228 17.76 141.348 17.248 141.348 16.672C141.348 16.064 141.228 15.544 140.988 15.112C140.748 14.664 140.404 14.328 139.956 14.104C139.524 13.864 139.004 13.744 138.396 13.744H135.252V10.336H138.204C139.692 10.336 140.964 10.584 142.02 11.08C143.092 11.576 143.908 12.28 144.468 13.192C145.044 14.104 145.332 15.2 145.332 16.48V16.864C145.332 18.112 145.044 19.2 144.468 20.128C143.908 21.04 143.092 21.744 142.02 22.24C140.964 22.736 139.692 22.984 138.204 22.984H135.252ZM131.796 28V10.336H135.732V28H131.796ZM147.756 28V10.48H151.62V28H147.756ZM146.196 13.312V10.48H151.62V13.312H146.196ZM163.102 28V24.112H162.454V19.888C162.454 19.216 162.294 18.712 161.974 18.376C161.654 18.04 161.142 17.872 160.438 17.872C160.086 17.872 159.622 17.88 159.046 17.896C158.47 17.912 157.878 17.936 157.27 17.968C156.662 18 156.11 18.032 155.614 18.064V14.824C155.982 14.792 156.414 14.76 156.91 14.728C157.406 14.696 157.918 14.672 158.446 14.656C158.974 14.64 159.47 14.632 159.934 14.632C161.278 14.632 162.406 14.824 163.318 15.208C164.246 15.592 164.95 16.176 165.43 16.96C165.91 17.728 166.15 18.72 166.15 19.936V28H163.102ZM158.902 28.336C157.958 28.336 157.126 28.168 156.406 27.832C155.702 27.496 155.15 27.016 154.75 26.392C154.35 25.752 154.15 24.992 154.15 24.112C154.15 23.152 154.398 22.368 154.894 21.76C155.39 21.136 156.086 20.68 156.982 20.392C157.878 20.088 158.91 19.936 160.078 19.936H162.886V22.072H160.054C159.382 22.072 158.862 22.24 158.494 22.576C158.142 22.896 157.966 23.336 157.966 23.896C157.966 24.424 158.142 24.856 158.494 25.192C158.862 25.512 159.382 25.672 160.054 25.672C160.486 25.672 160.87 25.6 161.206 25.456C161.558 25.296 161.846 25.032 162.07 24.664C162.294 24.296 162.422 23.784 162.454 23.128L163.366 24.088C163.286 25 163.062 25.768 162.694 26.392C162.342 27.016 161.846 27.496 161.206 27.832C160.582 28.168 159.814 28.336 158.902 28.336ZM169.03 33.208V29.944H171.766C172.182 29.944 172.534 29.888 172.822 29.776C173.11 29.68 173.342 29.512 173.518 29.272C173.694 29.032 173.838 28.704 173.95 28.288L177.19 14.848H180.838L177.166 29.056C176.91 30.08 176.55 30.896 176.086 31.504C175.638 32.112 175.03 32.544 174.262 32.8C173.51 33.072 172.55 33.208 171.382 33.208H169.03ZM173.158 27.712V24.712H175.942V27.712H173.158ZM171.574 27.712L167.542 14.848H171.406L175.222 27.712H171.574ZM188.581 28.456C187.461 28.456 186.469 28.264 185.605 27.88C184.757 27.496 184.045 26.984 183.469 26.344C182.909 25.688 182.477 24.96 182.173 24.16C181.885 23.344 181.741 22.512 181.741 21.664V21.184C181.741 20.304 181.885 19.464 182.173 18.664C182.477 17.848 182.909 17.12 183.469 16.48C184.029 15.84 184.725 15.336 185.557 14.968C186.405 14.584 187.365 14.392 188.437 14.392C189.845 14.392 191.029 14.712 191.989 15.352C192.965 15.976 193.709 16.8 194.221 17.824C194.733 18.832 194.989 19.936 194.989 21.136V22.432H183.349V20.248H192.661L191.413 21.256C191.413 20.472 191.301 19.8 191.077 19.24C190.853 18.68 190.517 18.256 190.069 17.968C189.637 17.664 189.093 17.512 188.437 17.512C187.765 17.512 187.197 17.664 186.733 17.968C186.269 18.272 185.917 18.72 185.677 19.312C185.437 19.888 185.317 20.6 185.317 21.448C185.317 22.232 185.429 22.92 185.653 23.512C185.877 24.088 186.229 24.536 186.709 24.856C187.189 25.176 187.813 25.336 188.581 25.336C189.285 25.336 189.861 25.2 190.309 24.928C190.757 24.656 191.061 24.32 191.221 23.92H194.749C194.557 24.8 194.181 25.584 193.621 26.272C193.061 26.96 192.357 27.496 191.509 27.88C190.661 28.264 189.685 28.456 188.581 28.456ZM197.533 28V14.848H200.581V20.488H200.509C200.509 18.632 200.901 17.2 201.685 16.192C202.485 15.184 203.637 14.68 205.141 14.68H205.645V17.992H204.685C203.629 17.992 202.813 18.28 202.237 18.856C201.661 19.416 201.373 20.232 201.373 21.304V28H197.533Z" fill="white"/>
</svg>
